<svg xmlns="http://www.w3.org/2000/svg" viewBox="0 0 120 120">
  <defs>
    <radialGradient id="bg" cx="50%" cy="34%" r="62%">
      <stop offset="0" stop-color="#f7fbff"/>
      <stop offset="1" stop-color="#dceeff"/>
    </radialGradient>
    <linearGradient id="plane" x1="26" y1="48" x2="94" y2="80" gradientUnits="userSpaceOnUse">
      <stop offset="0" stop-color="#92d2ff"/>
      <stop offset="1" stop-color="#4a9de5"/>
    </linearGradient>
  </defs>
  <circle cx="60" cy="60" r="52" fill="url(#bg)" stroke="#c8dbef" stroke-width="4"/>
  <circle cx="60" cy="62" r="40" fill="#ffffff" opacity=".92"/>
  <path d="M26 62H52L80 44C86 40 92 42 94 46C96 50 92 56 88 58L72 66L88 74C92 76 96 82 94 86C92 90 86 92 80 88L52 72H26C22 72 20 70 20 67C20 64 22 62 26 62Z" fill="url(#plane)" stroke="#5f7487" stroke-width="4" stroke-linejoin="round"/>
  <path d="M48 62L36 48" stroke="#5f7487" stroke-width="4" stroke-linecap="round"/>
  <path d="M48 72L40 86" stroke="#5f7487" stroke-width="4" stroke-linecap="round"/>
  <path d="M94 38L98 32L102 38" stroke="#ffd56f" stroke-width="3" stroke-linecap="round" stroke-linejoin="round"/>
</svg>
