<svg xmlns="http://www.w3.org/2000/svg" viewBox="0 0 120 120">
  <defs>
    <radialGradient id="bg" cx="50%" cy="34%" r="62%">
      <stop offset="0" stop-color="#fffaf4"/>
      <stop offset="1" stop-color="#ffe2c2"/>
    </radialGradient>
    <linearGradient id="apple" x1="40" y1="36" x2="82" y2="92" gradientUnits="userSpaceOnUse">
      <stop offset="0" stop-color="#ff8e8e"/>
      <stop offset="1" stop-color="#e94f59"/>
    </linearGradient>
  </defs>
  <circle cx="60" cy="60" r="52" fill="url(#bg)" stroke="#efc794" stroke-width="4"/>
  <circle cx="60" cy="62" r="40" fill="#fffdf9" opacity=".92"/>
  <path d="M60 38C40 38 30 52 30 68C30 84 43 94 60 94C77 94 90 84 90 68C90 52 80 38 60 38Z" fill="url(#apple)" stroke="#a54f4f" stroke-width="4"/>
  <path d="M60 38C60 28 66 22 74 20" stroke="#6e513f" stroke-width="4" stroke-linecap="round"/>
  <path d="M64 24C73 18 82 22 86 30C77 33 67 32 64 24Z" fill="#7ac87e" stroke="#4f8f57" stroke-width="4" stroke-linejoin="round"/>
  <ellipse cx="47" cy="55" rx="9" ry="6" fill="#fff" opacity=".3"/>
  <path d="M21 38L25 32L29 38" stroke="#f8bfd1" stroke-width="3" stroke-linecap="round" stroke-linejoin="round"/>
</svg>
