<svg xmlns="http://www.w3.org/2000/svg" viewBox="0 0 120 120">
  <defs>
    <radialGradient id="bg" cx="50%" cy="34%" r="62%">
      <stop offset="0" stop-color="#fff9fc"/>
      <stop offset="1" stop-color="#ffd8ea"/>
    </radialGradient>
    <linearGradient id="cake" x1="34" y1="48" x2="86" y2="88" gradientUnits="userSpaceOnUse">
      <stop offset="0" stop-color="#ffe6bb"/>
      <stop offset="1" stop-color="#ffc981"/>
    </linearGradient>
  </defs>
  <circle cx="60" cy="60" r="52" fill="url(#bg)" stroke="#f0bdd0" stroke-width="4"/>
  <circle cx="60" cy="62" r="40" fill="#fffdfd" opacity=".92"/>
  <ellipse cx="60" cy="88" rx="28" ry="7" fill="#f8cddd"/>
  <rect x="30" y="56" width="60" height="24" rx="10" fill="url(#cake)" stroke="#8c6d63" stroke-width="4"/>
  <path d="M28 48C34 58 40 40 46 48C52 56 58 40 64 48C70 56 76 40 82 48C86 54 90 50 92 48V60H28V48Z" fill="#fff" stroke="#8c6d63" stroke-width="4" stroke-linejoin="round"/>
  <path d="M34 48C40 56 46 42 52 48C58 54 64 42 70 48C76 54 82 42 88 48" stroke="#f8bfd1" stroke-width="4" stroke-linecap="round"/>
  <rect x="56" y="28" width="8" height="20" rx="4" fill="#89c980"/>
  <path d="M60 22C66 28 64 34 60 37C56 34 54 28 60 22Z" fill="#ffb347" stroke="#8c6d63" stroke-width="3" stroke-linejoin="round"/>
  <circle cx="44" cy="72" r="4" fill="#f48fb1"/>
  <circle cx="60" cy="74" r="4" fill="#81c784"/>
  <circle cx="76" cy="72" r="4" fill="#64b5f6"/>
</svg>
