<svg xmlns="http://www.w3.org/2000/svg" viewBox="0 0 120 120">
  <defs>
    <radialGradient id="bg" cx="50%" cy="35%" r="62%">
      <stop offset="0" stop-color="#fffaf2"/>
      <stop offset="1" stop-color="#ffe2b5"/>
    </radialGradient>
    <linearGradient id="fur" x1="40" y1="38" x2="78" y2="84" gradientUnits="userSpaceOnUse">
      <stop offset="0" stop-color="#ffd991"/>
      <stop offset="1" stop-color="#f5b85d"/>
    </linearGradient>
  </defs>
  <circle cx="60" cy="60" r="52" fill="url(#bg)" stroke="#efc794" stroke-width="4"/>
  <circle cx="60" cy="62" r="40" fill="#fffdfa" opacity=".92"/>
  <path d="M40 48L47 24L62 40Z" fill="url(#fur)" stroke="#8c6d63" stroke-width="4" stroke-linejoin="round"/>
  <path d="M80 48L73 24L58 40Z" fill="url(#fur)" stroke="#8c6d63" stroke-width="4" stroke-linejoin="round"/>
  <circle cx="60" cy="62" r="24" fill="url(#fur)" stroke="#8c6d63" stroke-width="4"/>
  <circle cx="50" cy="60" r="3.5" fill="#5a4b41"/>
  <circle cx="70" cy="60" r="3.5" fill="#5a4b41"/>
  <path d="M56 68L60 72L64 68" fill="#ff9fb4" stroke="#8c6d63" stroke-width="3" stroke-linejoin="round"/>
  <path d="M50 75C56 81 64 81 70 75" stroke="#8c6d63" stroke-width="4" stroke-linecap="round"/>
  <path d="M35 64H46M34 71H45M74 64H85M75 71H86" stroke="#8c6d63" stroke-width="3" stroke-linecap="round"/>
  <circle cx="31" cy="35" r="4" fill="#f7bfd1"/>
  <circle cx="89" cy="38" r="4" fill="#ffd56f"/>
</svg>
