<svg xmlns="http://www.w3.org/2000/svg" viewBox="0 0 120 120">
  <defs>
    <radialGradient id="bg" cx="50%" cy="38%" r="62%">
      <stop offset="0" stop-color="#fffaf2"/>
      <stop offset="1" stop-color="#f1d3b0"/>
    </radialGradient>
    <linearGradient id="fur" x1="40" y1="44" x2="78" y2="84" gradientUnits="userSpaceOnUse">
      <stop offset="0" stop-color="#f5cf9d"/>
      <stop offset="1" stop-color="#d59766"/>
    </linearGradient>
  </defs>
  <circle cx="60" cy="60" r="52" fill="url(#bg)" stroke="#d9b287" stroke-width="4"/>
  <circle cx="60" cy="62" r="40" fill="#fffdf9" opacity=".92"/>
  <path d="M40 46C28 54 28 72 38 78C46 72 48 60 46 50Z" fill="#996544" stroke="#8c6d63" stroke-width="4" stroke-linejoin="round"/>
  <path d="M80 46C92 54 92 72 82 78C74 72 72 60 74 50Z" fill="#996544" stroke="#8c6d63" stroke-width="4" stroke-linejoin="round"/>
  <circle cx="60" cy="62" r="24" fill="url(#fur)" stroke="#8c6d63" stroke-width="4"/>
  <circle cx="50" cy="58" r="3.5" fill="#5a4b41"/>
  <circle cx="70" cy="58" r="3.5" fill="#5a4b41"/>
  <ellipse cx="60" cy="67" rx="7" ry="5.5" fill="#5a4b41"/>
  <path d="M53 77C57 83 63 83 67 77" stroke="#8c6d63" stroke-width="4" stroke-linecap="round"/>
  <circle cx="47" cy="69" r="5" fill="#ffd7cc"/>
  <circle cx="73" cy="69" r="5" fill="#ffd7cc"/>
  <path d="M28 36L32 30L36 36" stroke="#76bdf2" stroke-width="3" stroke-linecap="round" stroke-linejoin="round"/>
</svg>
