<svg xmlns="http://www.w3.org/2000/svg" viewBox="0 0 120 120">
  <defs>
    <radialGradient id="bg" cx="50%" cy="38%" r="62%">
      <stop offset="0" stop-color="#fffaf7"/>
      <stop offset="1" stop-color="#ffd9ea"/>
    </radialGradient>
    <filter id="shadow" x="-20%" y="-20%" width="140%" height="140%">
      <feDropShadow dx="0" dy="6" stdDeviation="6" flood-color="#c07f98" flood-opacity=".25"/>
    </filter>
  </defs>
  <g filter="url(#shadow)">
    <circle cx="60" cy="60" r="52" fill="url(#bg)" stroke="#f2b2c7" stroke-width="4"/>
    <circle cx="60" cy="62" r="40" fill="#fffdfc" opacity=".92"/>
  </g>
  <path d="M37 28C37 16 45 10 51 14C57 18 53 34 53 46H37V28Z" fill="#fff" stroke="#9a7a72" stroke-width="4" stroke-linejoin="round"/>
  <path d="M67 28C67 16 75 10 81 14C87 18 83 34 83 46H67V28Z" fill="#fff" stroke="#9a7a72" stroke-width="4" stroke-linejoin="round"/>
  <path d="M44 20C44 15 47 13 50 15C53 17 51 27 51 34H44V20Z" fill="#f7bfd1"/>
  <path d="M69 20C69 15 72 13 75 15C78 17 76 27 76 34H69V20Z" fill="#f7bfd1"/>
  <circle cx="60" cy="64" r="24" fill="#fff" stroke="#9a7a72" stroke-width="4"/>
  <circle cx="51" cy="61" r="3.5" fill="#5a4b41"/>
  <circle cx="69" cy="61" r="3.5" fill="#5a4b41"/>
  <ellipse cx="60" cy="69" rx="5.5" ry="4.5" fill="#ff9ab5"/>
  <path d="M52 76C56 82 64 82 68 76" stroke="#9a7a72" stroke-width="4" stroke-linecap="round"/>
  <circle cx="46" cy="69" r="5" fill="#ffd7e3"/>
  <circle cx="74" cy="69" r="5" fill="#ffd7e3"/>
  <path d="M22 36L26 30L30 36" stroke="#ffd56f" stroke-width="3" stroke-linecap="round" stroke-linejoin="round"/>
  <path d="M88 34L91 29L94 34" stroke="#7bcf86" stroke-width="3" stroke-linecap="round" stroke-linejoin="round"/>
</svg>
